<svg xmlns="http://www.w3.org/2000/svg" viewBox="0 0 21.98 22.48">
    <defs><style>.cls-1,.cls-2{   fill: #0BC4CF;}.cls-1{fill-rule:evenodd;}
    </style></defs><g id="图层_2" data-name="图层 2">
    <g id="图层_2-2" data-name="图层 2"><polygon class="cls-1" points="2 2 18 2 18 9 20 9 20 2 20 0 0 0 0 2 0 20 0 22 8 22 8 20 2 20 2 2"/><rect class="cls-2" x="4" y="6" width="12" height="2"/><rect class="cls-2" x="4" y="12" width="4" height="2"/><path class="cls-1" d="M22,21.07l-1.76-1.76a5.48,5.48,0,1,0-1.32,1.51l1.66,1.66ZM11.83,16.5a3.67,3.67,0,1,1,3.67,3.67A3.68,3.68,0,0,1,11.83,16.5Z"/></g></g></svg>
