<svg xmlns="http://www.w3.org/2000/svg" viewBox="0 0 20 20"><defs><style>.cls-1{fill: #0BC4CF;fill-rule:evenodd;}</style></defs><g id="图层_2" data-name="图层 2"><g id="图层_2-2" data-name="图层 2"><path id="形状_9" data-name="形状 9" class="cls-1" d="M10,7H3a3,3,0,0,0-3,3v7a3,3,0,0,0,3,3h7a3,3,0,0,0,3-3V10A3,3,0,0,0,10,7Zm1,10a1,1,0,0,1-1,1H3a1,1,0,0,1-1-1V10A1,1,0,0,1,3,9h7a1,1,0,0,1,1,1ZM17,0H10A3,3,0,0,0,7,3V5H9V3a1,1,0,0,1,1-1h7a1,1,0,0,1,1,1v7a1,1,0,0,1-1,1H15v2h2a3,3,0,0,0,3-3V3A3,3,0,0,0,17,0Z"/></g></g></svg>
