<svg xmlns="http://www.w3.org/2000/svg" viewBox="0 0 212 70"><defs><style>.cls-1{opacity:0.3;}.cls-2{fill:#96989d;}</style></defs><g id="图层_2" data-name="图层 2"><g id="图层_1-2" data-name="图层 1"><g class="cls-1"><polygon class="cls-2" points="207 39 207 40 211 40 211 69 1 69 1 40 5 40 5 39 1 39 0 39 0 40 0 69 0 70 1 70 211 70 212 70 212 69 212 40 212 39 211 39 207 39"/><polygon class="cls-2" points="211 0 1 0 0 0 0 1 0 30 0 31 1 31 5 31 5 30 1 30 1 1 211 1 211 30 207 30 207 31 211 31 212 31 212 30 212 1 212 0 211 0"/><rect class="cls-2" x="8" y="8" width="195" height="54"/></g></g></g></svg>