<svg xmlns="http://www.w3.org/2000/svg" xmlns:xlink="http://www.w3.org/1999/xlink" viewBox="0 0 30 30"><defs><style>.cls-1{fill:url(#未命名的渐变_11);}.cls-2{fill:#fff;}</style><linearGradient id="未命名的渐变_11" x1="-3.07" y1="8.42" x2="33.07" y2="21.58" gradientUnits="userSpaceOnUse"><stop offset="0" stop-color="#f80cc6"/><stop offset="1" stop-color="#0d61eb"/></linearGradient></defs><g id="图层_2" data-name="图层 2"><g id="图层_2-2" data-name="图层 2"><rect class="cls-1" width="30" height="30"/><path class="cls-2" d="M15.78,17.63v.5H13.84v-.57a3.65,3.65,0,0,1,1.82-3.18c1.12-.75,1.62-1.57,1.5-2.44a1.76,1.76,0,0,0-1.82-1.63,2.37,2.37,0,0,0-2.68,2.25l-1.94-.62c.54-2.42,2.12-3.58,4.75-3.5Q19,8.62,19.28,12q.06,2.07-2.37,3.75A2,2,0,0,0,15.78,17.63Zm-2.12,1.75H16v2.18H13.66Z"/></g></g></svg>