<svg xmlns="http://www.w3.org/2000/svg" width="44" height="28" viewBox="0 0 44 28">
  <defs>
    <style>
      .cls-1 {
        fill: #fff;
        fill-rule: evenodd;
      }
    </style>
  </defs>
  <path id="矩形_13" data-name="矩形 13" class="cls-1" d="M506,1385h2v2h-2v-2Zm-4,0h2v2h-2v-2Zm2-2h2v2h-2v-2Zm0,4h2v2h-2v-2Zm2-6h2v2h-2v-2Zm0,8h2v2h-2v-2Zm6-4v2h-2v-2h2Zm1,0h2v2h-2v-2Zm3,0h2v2h-2v-2Zm-8-6h2v2h-2v-2Zm0,12h2v2h-2v-2Zm0-4h2v2h-2v-2Zm0-4h2v2h-2v-2Zm11,2h2v2h-2v-2Zm3,0h2v2h-2v-2Z" transform="translate(-491 -1372)"/>
</svg>
