<?xml version="1.0" encoding="UTF-8"?>
<svg width="84px" height="84px" viewBox="0 0 84 84" version="1.1" xmlns="http://www.w3.org/2000/svg" xmlns:xlink="http://www.w3.org/1999/xlink">
    <title>编组 3备份</title>
    <g id="页面-1" stroke="none" stroke-width="1" fill="none" fill-rule="evenodd">
        <g id="coso-d备份" transform="translate(-154.000000, -314.000000)">
            <g id="编组-3备份" transform="translate(154.000000, 314.000000)">
                <circle id="椭圆形" stroke="#EEEEEE" stroke-width="7" cx="42" cy="42" r="38.5"></circle>
                <path d="M33.3846154,40.7692308 C29.3138541,40.7692308 26,37.4553767 26,33.3846154 C26,29.3138541 29.3138541,26 33.3846154,26 C37.4553767,26 40.7692308,29.3138541 40.7692308,33.3846154 C40.7692308,37.4553767 37.4553767,40.7692308 33.3846154,40.7692308 L33.3846154,40.7692308 Z M33.3846154,30.9230769 C32.0298151,30.9230769 30.9230769,32.0298151 30.9230769,33.3846154 C30.9230769,34.7394156 32.0298151,35.8461538 33.3846154,35.8461538 C34.7394156,35.8461538 35.8461538,34.7457762 35.8461538,33.3846154 C35.8461538,32.0234546 34.7457762,30.9230769 33.3846154,30.9230769 Z M50.6153846,58 C46.5446233,58 43.2307692,54.6861459 43.2307692,50.6153846 C43.2307692,46.5446233 46.5446233,43.2307692 50.6153846,43.2307692 C54.6861459,43.2307692 58,46.5446233 58,50.6153846 C58,54.6861459 54.6861459,58 50.6153846,58 Z M50.6153846,48.1538462 C49.2605844,48.1538462 48.1538462,49.2605844 48.1538462,50.6153846 C48.1538462,51.9701849 49.2605844,53.0769231 50.6153846,53.0769231 C51.9701849,53.0769231 53.0769231,51.9701849 53.0769231,50.6153846 C53.0769231,49.2605844 51.9701849,48.1538462 50.6153846,48.1538462 Z M29.5428344,56.3080898 C28.9131385,56.3080898 28.2834427,56.0663884 27.8000398,55.5893461 C26.8395945,54.6289008 26.8395945,53.0705625 27.8000398,52.1101173 L51.7984496,28.1053468 C52.7588949,27.1449016 54.3172332,27.1449016 55.2776784,28.1053468 C56.2381236,29.0657921 56.2381236,30.6241304 55.2776784,31.5845756 L31.2792685,55.5829855 C30.8022262,56.0663884 30.1725303,56.3080898 29.5428344,56.3080898 Z" id="形状" fill="#2F2F2F" fill-rule="nonzero"></path>
            </g>
        </g>
    </g>
</svg>