<svg xmlns="http://www.w3.org/2000/svg" viewBox="0 0 98.3 111.85"><defs><style>.cls-1{fill:#0bc4cf;}</style></defs><g id="图层_2" data-name="图层 2"><g id="图层_2-2" data-name="图层 2"><path class="cls-1" d="M98,9.51C82.41,4.87,68.33,2.08,49.31,0A153.54,153.54,0,0,0,23.16,3.45C15.08,5.29,7.41,7.31.22,9.51c0,59.25-5.74,74,41.6,100,5.67,3.11,9.1,3.22,15,.06C104.24,84,98.1,71.73,98,9.51ZM80.42,59.34,72.64,51.7,50,75.35l-.22-.52-12.83-15L25,69.94l-7.09-8.6L38.39,44.58l.52.6,11.93,14,14.31-14.9-7.71-7.64,23-.15Z"/></g></g></svg>