<svg xmlns="http://www.w3.org/2000/svg" viewBox="0 0 34 34"><defs><style>.cls-1{fill:#36383d;}.cls-2{fill:#131416;}.cls-3{fill:#fff;fill-rule:evenodd;}</style></defs><g id="图层_2" data-name="图层 2"><g id="图层_1-2" data-name="图层 1"><circle class="cls-1" cx="17" cy="17" r="16"/><path class="cls-2" d="M18,3A15,15,0,1,1,3,18,15,15,0,0,1,18,3m0-2A17,17,0,1,0,35,18,17,17,0,0,0,18,1Z" transform="translate(-1 -1)"/><path class="cls-3" d="M21,15H19v2h2Zm-6,6h2V19H15Zm8-8H21v2h2ZM13,23h2V21H13Zm2-8v2h2V15Zm6,6V19H19v2Zm-8-8v2h2V13Zm4,4v2h2V17Zm6,6V21H21v2Z" transform="translate(-1 -1)"/></g></g></svg>