<svg xmlns="http://www.w3.org/2000/svg" viewBox="0 0 27 37">
    <defs>
        <style>
            .cls-1 {
            fill: #777;
            fill-opacity: 0;
            stroke: #fff;
            stroke-linejoin: round;
            stroke-width: 1px;
            }

        </style>
    </defs>
    <g id="图层_2" data-name="图层 2">
        <g id="图层_1-2" data-name="图层 1">
            <path class="cls-1" d="M8,10V5a2,2,0,0,1,2-2h7a2,2,0,0,1,2,2v5h3V3a2.77,2.77,0,0,0-3-3H8A2.77,2.77,0,0,0,5,3l.06.36L5,10Z"/>
            <path class="cls-1" d="M7.63,21.25H5.83v6.11h1.8c.17,0,.26-.11.26-.35V21.6C7.89,21.37,7.8,21.25,7.63,21.25Z"/>
            <polygon class="cls-1" points="12.63 25.42 14.29 25.42 13.45 21.75 12.63 25.42"/>
            <path class="cls-1" d="M23,12H4a4,4,0,0,0-4,4V33a4,4,0,0,0,4,4H23a4,4,0,0,0,4-4V16A4,4,0,0,0,23,12ZM9.5,27a2.81,2.81,0,0,1-.42,1.66,1.46,1.46,0,0,1-1.23.57H4.22V19.36H7.85a1.44,1.44,0,0,1,1.23.58,2.75,2.75,0,0,1,.42,1.65Zm6.68,2.23H14.62v-2H12.3v2H10.79V27a3.54,3.54,0,0,1,.14-.91l1.71-6.77h1.62L16,26.17a2.07,2.07,0,0,1,.21.89Zm6.6-2a2.56,2.56,0,0,1-.4,1.55,1.33,1.33,0,0,1-1.14.54H19a1.33,1.33,0,0,1-1.14-.54,2.56,2.56,0,0,1-.4-1.55V21.39a2.5,2.5,0,0,1,.4-1.54A1.33,1.33,0,0,1,19,19.31h2.2a1.33,1.33,0,0,1,1.14.54,2.5,2.5,0,0,1,.4,1.54Z"/>
            <path class="cls-1" d="M20.9,21.15H19.36c-.17,0-.26.12-.26.35v5.58c0,.23.09.35.26.35H20.9c.18,0,.26-.12.26-.35V21.5C21.16,21.27,21.08,21.15,20.9,21.15Z"/>
        </g>
    </g>
</svg>