<svg xmlns="http://www.w3.org/2000/svg" viewBox="0 0 38 38">
    <defs>
        <style>
            .cls-1{fill:#46484d;}
            .cls-2{fill:#96989d;}
        </style></defs>
    <g id="图层_2" data-name="图层 2">
        <g id="图层_1-2" data-name="图层 1">
            <path class="cls-1" d="M38,19c0,13.12-5.88,19-19,19S0,32.12,0,19,5.88,0,19,0,38,5.88,38,19Z"/>
            <circle class="cls-2" cx="19" cy="18.98" r="6.6"/>
            <path class="cls-2" d="M19,11.3a1.1,1.1,0,0,0,1.1-1.1V9.1a1.1,1.1,0,0,0-2.2,0v1.1A1.1,1.1,0,0,0,19,11.3Z"/>
            <path class="cls-2" d="M19,26.7a1.1,1.1,0,0,0-1.1,1.1v1.1a1.1,1.1,0,0,0,2.2,0V27.8A1.1,1.1,0,0,0,19,26.7Z"/>
            <path class="cls-2" d="M28.9,17.9H27.8a1.1,1.1,0,1,0,0,2.2h1.1a1.1,1.1,0,0,0,0-2.2Z"/>
            <path class="cls-2" d="M11.3,19a1.1,1.1,0,0,0-1.1-1.1H9.1a1.1,1.1,0,1,0,0,2.2h1.1A1.1,1.1,0,0,0,11.3,19Z"/>
            <path class="cls-2" d="M26,13.56l.78-.78a1.1,1.1,0,1,0-1.56-1.56l-.78.78A1.1,1.1,0,1,0,26,13.56Z"/>
            <path class="cls-2" d="M12,24.44l-.78.78a1.1,1.1,0,0,0,1.56,1.56l.78-.78A1.1,1.1,0,1,0,12,24.44Z"/>
            <path class="cls-2" d="M26,24.44A1.1,1.1,0,1,0,24.44,26l.78.78a1.1,1.1,0,0,0,1.56-1.56Z"/>
            <path class="cls-2" d="M12,13.56A1.1,1.1,0,1,0,13.56,12l-.78-.78a1.1,1.1,0,0,0-1.56,1.56Z"/>
        </g>
    </g>
</svg>
