<svg xmlns="http://www.w3.org/2000/svg" viewBox="0 0 100 72.58"><g fill="#fff"  id="图层_2" data-name="图层 2"><g id="图层_1-2" data-name="图层 1"><path d="M100,59.41C100,31.72,87.63,9.14,87.63,9.14,75.26-.27,63.44,0,63.44,0L62.36,1.34c14.78,4.57,21.5,11,21.5,11A68.81,68.81,0,0,0,58.06,4a76,76,0,0,0-17.47.27,11.69,11.69,0,0,1-1.35.27A63,63,0,0,0,19.62,10a49.21,49.21,0,0,0-5.1,2.42S21.77,5.65,37.36,1.08L36.56,0S24.73-.27,12.36,9.14C12.36,9.14,0,31.72,0,59.41c0,0,7.26,12.63,26.34,13.17,0,0,3-4,5.65-7.26C21,62.09,16.93,55.1,16.93,55.1a25.38,25.38,0,0,0,2.42,1.35.26.26,0,0,0,.27.27c.27.27.54.27.81.53a41.21,41.21,0,0,0,6.18,3A89.06,89.06,0,0,0,39.24,64a61.72,61.72,0,0,0,22.31,0,58.3,58.3,0,0,0,12.37-3.76,43.4,43.4,0,0,0,9.94-5.11s-4.3,7-15.59,10.22c2.42,3.22,5.65,7,5.65,7C93,71.77,100.26,59.14,100,59.41ZM33.87,51.34C29,51.34,25,47,25,41.66S29,32,33.87,32s8.87,4.3,8.87,9.67S38.71,51.34,33.87,51.34Zm31.45,0c-4.84,0-8.87-4.3-8.87-9.68s4-9.67,8.87-9.67,8.87,4.3,8.87,9.67S70.16,51.34,65.32,51.34Z"/></g></g></svg>