<svg xmlns="http://www.w3.org/2000/svg" viewBox="0 0 36 36"><defs><style>.cls-1{fill:#36383d;}.cls-2{fill:#fff;fill-rule:evenodd;}</style></defs><g id="图层_2" data-name="图层 2"><g id="图层_2-2" data-name="图层 2"><path class="cls-1" d="M36,18c0,12.43-5.57,18-18,18S0,30.43,0,18,5.57,0,18,0,36,5.57,36,18Z"/><path class="cls-2" d="M23.5,18h-.26a4.07,4.07,0,0,0-1.89.53A3.85,3.85,0,0,1,19.5,19h-3a3.85,3.85,0,0,1-1.85-.47A4.07,4.07,0,0,0,12.76,18H12.5a3,3,0,0,0-3,3v3a2,2,0,0,0,2,2c3.07,0,9.91,0,13,0a2,2,0,0,0,2-2V21A3,3,0,0,0,23.5,18Zm-7-1h3a2,2,0,0,0,2-2V12a2,2,0,0,0-2-2h-3a2,2,0,0,0-2,2v3A2,2,0,0,0,16.5,17Z"/></g></g></svg>