<svg xmlns="http://www.w3.org/2000/svg" width="17" height="16" viewBox="0 0 17 16">
  <defs>
    <style>
      .cls-1 {
        fill: #999;
        fill-rule: evenodd;
      }
    </style>
  </defs>
  <path id="形状_10" data-name="形状 10" class="cls-1" d="M1649,27h-0.26a4.018,4.018,0,0,0-1.89.532A3.892,3.892,0,0,1,1645,28h-3a3.892,3.892,0,0,1-1.85-.468,4.018,4.018,0,0,0-1.89-.532H1638a3,3,0,0,0-3,3v2.99a2,2,0,0,0,2.01,2c3.07-.008,9.91,0,12.98.006a2,2,0,0,0,2.01-2V30A3,3,0,0,0,1649,27Zm-7-1h3a2,2,0,0,0,2-2V21a2,2,0,0,0-2-2h-3a2,2,0,0,0-2,2v3A2,2,0,0,0,1642,26Z" transform="translate(-1635 -19)"/>
</svg>
