<svg xmlns="http://www.w3.org/2000/svg" width="21" height="14" viewBox="0 0 21 14">
  <defs>
    <style>
      .cls-1 {
        fill: #fff;
        fill-rule: evenodd;
      }
    </style>
  </defs>
  <path id="矩形_13" data-name="矩形 13" class="cls-1" d="M627,1276h2v2h-2v-2Zm-5,0h2v2h-2v-2Zm2-2h2v2h-2v-2Zm0,4h2v2h-2v-2Zm2-6h2v2h-2v-2Zm0,8h2v2h-2v-2Zm7-4h2v2h-2v-2Zm4,0h2v2h-2v-2Zm-9-6h2v2h-2v-2Zm0,12h2v2h-2v-2Zm1-4h2v2h-2v-2Zm0-4h2v2h-2v-2Zm12,2h2v2h-2v-2Z" transform="translate(-622 -1270)"/>
</svg>
