<svg xmlns="http://www.w3.org/2000/svg" viewBox="0 0 38 38">
    <defs>
        <style>
            .cls-1{fill:#010304;}.cls-2{fill:#eee;}
        </style></defs>
    <g id="图层_2" data-name="图层 2">
        <g id="图层_1-2" data-name="图层 1">
            <path class="cls-1" d="M38,19c0,13.12-5.88,19-19,19S0,32.12,0,19,5.88,0,19,0,38,5.88,38,19Z"/>
            <path class="cls-2" d="M22.24,10.62A8.66,8.66,0,0,0,19.39,10,.63.63,0,0,0,19,11.13,5.61,5.61,0,1,1,11.13,19a.63.63,0,0,0-1.13.41,8.66,8.66,0,0,0,.62,2.85A9,9,0,1,0,22.24,10.62Z"/>
        </g>
    </g>
</svg>
