<svg xmlns="http://www.w3.org/2000/svg" width="27" height="37" viewBox="0 0 27 37">
  <defs>
    <style>
      .cls-1 {
        fill: #fff;
        fill-rule: evenodd;
      }
    </style>
  </defs>
  <path id="形状_8_拷贝" data-name="形状 8 拷贝" class="cls-1" d="M716,437H705a2.773,2.773,0,0,0-3,3l0.062,0.355L702,447h3v-5a2,2,0,0,1,2-2h7a2,2,0,0,1,2,2v5h3v-7h0a2.773,2.773,0,0,0-3-3h0Zm4,12H701a4,4,0,0,0-4,4v17.01A3.994,3.994,0,0,0,701,474h19a3.994,3.994,0,0,0,4-3.987V453A4,4,0,0,0,720,449Zm-4.437,11.54h-3.375v6.729h-3.375V460.54h-3.375v-3.364h10.125v3.364Z" transform="translate(-697 -437)"/>
</svg>
