<svg xmlns="http://www.w3.org/2000/svg" width="22" height="22" viewBox="0 0 22 22">
  <defs>
    <style>
      .cls-1 {
        fill: #999;
        fill-rule: evenodd;
      }
    </style>
  </defs>
  <path id="形状_17" data-name="形状 17" class="cls-1" d="M1434,309v-4h-3.26a7.816,7.816,0,0,0-.86-2.055l2.31-2.309-2.83-2.828-2.3,2.308a8.072,8.072,0,0,0-2.06-.853V296h-4v3.263a8.072,8.072,0,0,0-2.06.853l-2.3-2.308-2.83,2.828,2.31,2.309a7.816,7.816,0,0,0-.86,2.055H1412v4h3.26a7.816,7.816,0,0,0,.86,2.055l-2.31,2.309,2.83,2.828,2.3-2.308a8.072,8.072,0,0,0,2.06.853V318h4v-3.263a8.072,8.072,0,0,0,2.06-.853l2.3,2.308,2.83-2.828-2.31-2.309a7.816,7.816,0,0,0,.86-2.055H1434Zm-11,3.091a5.091,5.091,0,1,1,5.09-5.091A5.094,5.094,0,0,1,1423,312.091Z" transform="translate(-1412 -296)"/>
</svg>
