<svg xmlns="http://www.w3.org/2000/svg" width="37" height="37" viewBox="0 0 37 37">
  <defs>
    <style>
      .cls-1 {
        fill: #fff;
        fill-rule: evenodd;
      }
    </style>
  </defs>
  <path id="形状_5" data-name="形状 5" class="cls-1" d="M1036.02,454.246l-3.28.021v-4.934a4.944,4.944,0,0,0-4.93-4.933l-4.35-.03v-2.431a4.885,4.885,0,1,0-9.77,0v2.431h-4.89a4.915,4.915,0,0,0-4.89,4.938v4.938h2.34a4.942,4.942,0,1,1,0,9.877h-2.34v4.938A4.915,4.915,0,0,0,1008.8,474h5.04v-2.467a4.93,4.93,0,1,1,9.86,0V474h4.11a4.944,4.944,0,0,0,4.93-4.933v-4.934l3.28-.01A4.939,4.939,0,0,0,1036.02,454.246Z" transform="translate(-1003.91 -437)"/>
</svg>
