<svg xmlns="http://www.w3.org/2000/svg" viewBox="0 0 45.99 44.99"><defs><style>.cls-1{fill:#fff;}</style></defs><g id="图层_2" data-name="图层 2"><g id="图层_1-2" data-name="图层 1"><polygon class="cls-1" points="17.75 23.92 21.29 23.92 19.51 18.96 17.75 23.92"/><path class="cls-1" d="M44.88,21c1.72-1.83,1.44-3.31-.83-4.42a4.13,4.13,0,0,1-2.42-5.28q1-3.6-2.84-3.54a4.21,4.21,0,0,1-4.65-3.56c-.57-2.42-2-3-4.19-1.85a4.31,4.31,0,0,1-5.82-1C22.48-.54,21-.45,19.55,1.62A4.29,4.29,0,0,1,13.9,3.34Q10.38,2,10,5.67A4.19,4.19,0,0,1,5.79,9.76C3.27,10,2.48,11.3,3.42,13.6a4.12,4.12,0,0,1-1.76,5.53C-.46,20.5-.55,22,1.38,23.61A4.1,4.1,0,0,1,2.45,29.3c-1.22,2.18-.59,3.54,1.88,4.1A4.17,4.17,0,0,1,8,38c-.05,2.48,1.16,3.41,3.61,2.77A4.29,4.29,0,0,1,17,43.1q1.71,3.32,4.51.81a4.31,4.31,0,0,1,5.91-.35c2.06,1.44,3.52,1,4.38-1.34a4.25,4.25,0,0,1,5.06-3q3.78.51,3.25-3.18a4.14,4.14,0,0,1,3.06-4.95q3.59-1.26,1.36-4.29A4.09,4.09,0,0,1,44.88,21ZM14.66,25.58A1.83,1.83,0,0,1,14.12,27a2.28,2.28,0,0,1-1.56.49H10A2.2,2.2,0,0,1,8.51,27,1.88,1.88,0,0,1,8,25.58v-.95H9.36v1c0,.47.27.7.82.7h2.27c.55,0,.82-.23.82-.7V24.06a.61.61,0,0,0-.51-.64l-3.4-.89a1.63,1.63,0,0,1-1.29-1.74V19.41A1.83,1.83,0,0,1,8.6,18a2.19,2.19,0,0,1,1.55-.49h2.36A2.14,2.14,0,0,1,14,18a1.87,1.87,0,0,1,.53,1.42v1H13.19V19.37c0-.47-.28-.7-.83-.7h-2.1c-.54,0-.82.24-.82.7v1.27a.81.81,0,0,0,.1.46.72.72,0,0,0,.41.24l3.33.87a1.62,1.62,0,0,1,1.38,1.65ZM23,27.44H21.64v-2.1a1.49,1.49,0,0,0,0-.24H17.4v2.34H16.07V25.18a2,2,0,0,1,.17-.86l2.56-6.8h1.38l2.57,6.83a1.37,1.37,0,0,1,.25.86Zm7.52,0H24.75V17.55h1.4v8.67h4.37Zm7.49,0h-6.2V17.55H37.9v1.21H33.22v3h4.32v1.17H33.22v3.32H38Z"/></g></g></svg>