<svg id="组_42" data-name="组 42" xmlns="http://www.w3.org/2000/svg" width="20.34" height="20" viewBox="0 0 20.34 20">
  <defs>
    <style>
      .cls-1, .cls-2 {
        fill: #999;
      }

      .cls-1 {
        fill-rule: evenodd;
      }
    </style>
  </defs>
  <path id="形状_15" data-name="形状 15" class="cls-1" d="M1359.92,316a10,10,0,1,1,0-20,10.433,10.433,0,0,1,8.25,4.031,1.285,1.285,0,0,1-.27,1.825,1.368,1.368,0,0,1-1.88-.267,7.606,7.606,0,0,0-6.1-2.98,7.394,7.394,0,1,0,0,14.782,7.619,7.619,0,0,0,7.14-4.857,1.357,1.357,0,0,1,1.72-.778,1.286,1.286,0,0,1,.8,1.672A10.3,10.3,0,0,1,1359.92,316Z" transform="translate(-1349.66 -296)"/>
  <rect id="矩形_14" data-name="矩形 14" class="cls-2" x="15.34" y="3" width="5" height="5"/>
</svg>
