<svg xmlns="http://www.w3.org/2000/svg" viewBox="0 0 96 76.22"><g  fill="#fff"  id="图层_2" data-name="图层 2"><g id="图层_1-2" data-name="图层 1"><path d="M92.92,11.69a2.91,2.91,0,0,0-3.07,3.08V63.3a6.62,6.62,0,0,1-6.16,6.15H13.54c-3.69,0-8-3.08-8-6.15V56.53c0-3.08,3.69-4.93,7.38-4.93h67.7a2.9,2.9,0,0,0,3.07-3.07V11.08C83.69,4.31,78.77,0,71.38,0H13.54C6.77,0,0,3.69,0,11.08V65.76C.62,71.3,6.15,75.6,11.69,76.22h72C90.46,76.22,96,70.68,96,64.53V14.77A3.3,3.3,0,0,0,92.92,11.69ZM81.23,57.76H14.77a3.08,3.08,0,1,0,0,6.15H81.23a3.08,3.08,0,1,0,0-6.15Z"/></g></g></svg>