<svg xmlns="http://www.w3.org/2000/svg" viewBox="0 0 43 43">
    <defs>
        <style>
            .cls-1{fill:#010304;}.cls-2{fill:#96989d;}
        </style>
    </defs>
    <g id="图层_2" data-name="图层 2">
        <g id="图层_1-2" data-name="图层 1">
            <path class="cls-1" d="M21.5,0C6.66,0,0,6.66,0,21.5S6.66,43,21.5,43,43,36.34,43,21.5,36.34,0,21.5,0Z"/>
            <path class="cls-2"
                  d="M17.51,24h2.84v2.08a3.28,3.28,0,0,1-.84,2.42,3.24,3.24,0,0,1-2.42.85H13a3.23,3.23,0,0,1-2.42-.85,3.24,3.24,0,0,1-.85-2.42V16.94a3.24,3.24,0,0,1,.85-2.42A3.23,3.23,0,0,1,13,13.67h4.08a3.24,3.24,0,0,1,2.42.85,3.28,3.28,0,0,1,.84,2.42v1.6H17.51V17a.76.76,0,0,0-.86-.86H13.49a.76.76,0,0,0-.86.86v9a.76.76,0,0,0,.86.86h3.16a.76.76,0,0,0,.86-.86Z"/>
            <path class="cls-2" d="M30.37,29.24V22.51H25.24v6.73H22.35V13.76h2.89V20h5.13V13.76h2.89V29.24Z"/>
        </g>
    </g>
</svg>
