<svg xmlns="http://www.w3.org/2000/svg" viewBox="0 0 43 43"><defs><style>.cls-1{fill:#96989d;}</style></defs><g id="图层_2" data-name="图层 2"><g id="图层_1-2" data-name="图层 1"><path class="cls-1" d="M21.5,0C6.66,0,0,6.66,0,21.5S6.66,43,21.5,43,43,36.34,43,21.5,36.34,0,21.5,0Zm6.93,12.59,1-1a1.4,1.4,0,0,1,2,2l-1,1a1.4,1.4,0,0,1-2-2ZM20.1,8.9a1.4,1.4,0,1,1,2.8,0v1.4a1.4,1.4,0,0,1-2.8,0Zm-8.5,2.7a1.39,1.39,0,0,1,2,0l1,1a1.4,1.4,0,0,1-2,2l-1-1A1.39,1.39,0,0,1,11.6,11.6ZM8.9,22.9a1.4,1.4,0,0,1,0-2.8h1.4a1.4,1.4,0,0,1,0,2.8Zm5.67,7.51-1,1a1.4,1.4,0,0,1-2-2l1-1a1.4,1.4,0,0,1,2,2ZM22.9,34.1a1.4,1.4,0,0,1-2.8,0V32.7a1.4,1.4,0,1,1,2.8,0Zm-1.4-4.23a8.4,8.4,0,1,1,8.4-8.4A8.4,8.4,0,0,1,21.5,29.87Zm9.9,1.53a1.39,1.39,0,0,1-2,0l-1-1a1.4,1.4,0,0,1,2-2l1,1A1.39,1.39,0,0,1,31.4,31.4Zm2.7-8.5H32.7a1.4,1.4,0,0,1,0-2.8h1.4a1.4,1.4,0,0,1,0,2.8Z"/></g></g></svg>