<svg xmlns="http://www.w3.org/2000/svg" xmlns:xlink="http://www.w3.org/1999/xlink" viewBox="0 0 43 43"><defs><style>.cls-1{fill:url(#未命名的渐变_11);}</style><linearGradient id="未命名的渐变_11" y1="21.5" x2="43" y2="21.5" gradientUnits="userSpaceOnUse"><stop offset="0" stop-color="#f80cc6"/><stop offset="1" stop-color="#0d61eb"/></linearGradient></defs><g id="图层_2" data-name="图层 2"><g id="图层_1-2" data-name="图层 1"><path class="cls-1" d="M21.5,0A21.5,21.5,0,1,0,43,21.5,21.51,21.51,0,0,0,21.5,0Zm-10,24.5a3,3,0,1,1,3-3A3,3,0,0,1,11.5,24.5Zm10,0a3,3,0,1,1,3-3A3,3,0,0,1,21.5,24.5Zm10,0a3,3,0,1,1,3-3A3,3,0,0,1,31.5,24.5Z"/></g></g></svg>