<svg xmlns="http://www.w3.org/2000/svg" xmlns:xlink="http://www.w3.org/1999/xlink" viewBox="0 0 50.01 43"><defs><style>.cls-1{fill:url(#未命名的渐变_11);}.cls-2{fill:url(#未命名的渐变_11-2);}.cls-3{fill:url(#未命名的渐变_11-3);}.cls-4{fill:url(#未命名的渐变_11-4);}</style><linearGradient id="未命名的渐变_11" x1="14.02" y1="11.25" x2="36.13" y2="11.25" gradientUnits="userSpaceOnUse"><stop offset="0" stop-color="#f80cc6"/><stop offset="1" stop-color="#0d61eb"/></linearGradient><linearGradient id="未命名的渐变_11-2" x1="0" y1="21.76" x2="42.56" y2="21.76" xlink:href="#未命名的渐变_11"/><linearGradient id="未命名的渐变_11-3" x1="5.41" y1="34.15" x2="44.6" y2="34.15" xlink:href="#未命名的渐变_11"/><linearGradient id="未命名的渐变_11-4" x1="38.95" y1="32.63" x2="50.01" y2="32.63" xlink:href="#未命名的渐变_11"/></defs><g id="图层_2" data-name="图层 2"><g id="图层_1-2" data-name="图层 1"><path class="cls-1" d="M17,3.61c-.22.24-.43.49-.63.74l-.15.21c-.17.23-.34.48-.49.73l-.16.26c-.14.24-.27.49-.39.74L15,6.61c-.11.25-.2.49-.29.74s-.09.24-.14.37-.14.5-.21.75-.07.27-.1.4-.1.54-.13.82l-.06.36c0,.4-.06.81-.06,1.21a11.05,11.05,0,0,0,.11,1.54l.06.37a11.72,11.72,0,0,0,.33,1.45s0,0,0,0A10.64,10.64,0,0,0,15.06,16c0,.1.09.2.14.29a10.07,10.07,0,0,0,.73,1.28h0a10.22,10.22,0,0,0,.91,1.15L17,19a11.19,11.19,0,0,0,2.28,1.89l.2.12a10.21,10.21,0,0,0,1.36.69,10.85,10.85,0,0,0,8.42,0,11.64,11.64,0,0,0,1.36-.7c.07,0,.13-.08.19-.11a11,11,0,0,0,2.29-1.9,1.62,1.62,0,0,0,.18-.2,10.26,10.26,0,0,0,.9-1.16h0a11.6,11.6,0,0,0,.73-1.29l.14-.3a12.2,12.2,0,0,0,.53-1.35v0A11.91,11.91,0,0,0,36,13.15c0-.12,0-.24,0-.37a11,11,0,0,0,.12-1.53c0-.41,0-.82-.07-1.22,0-.12,0-.24-.05-.37s-.08-.55-.14-.81-.06-.26-.1-.4a7,7,0,0,0-.21-.75l-.13-.37c-.09-.25-.19-.49-.29-.73S35,6.38,35,6.27s-.25-.49-.39-.73a2.26,2.26,0,0,0-.16-.26c-.15-.26-.32-.5-.49-.74l-.15-.19c-.2-.26-.4-.51-.62-.75a1.31,1.31,0,0,0-.11-.12c-.26-.28-.53-.54-.81-.79a10.87,10.87,0,0,0-14.32,0c-.28.25-.55.51-.81.79A.45.45,0,0,0,17,3.61Z"/><path class="cls-2" d="M32.78,22.38h.09A9.86,9.86,0,0,0,35.81,3.17a13.73,13.73,0,0,1-3,19.21Zm-15.55,0h.11a13.73,13.73,0,0,1-3-19.21,9.8,9.8,0,0,0-6.76,9.35A9.77,9.77,0,0,0,17.23,22.39Zm-6.17,2.52A12.53,12.53,0,0,0,0,37.45v2a.92.92,0,0,0,.91.93H3.07V38.7A15.82,15.82,0,0,1,11.06,24.91Z"/><path class="cls-3" d="M31.43,25.3H18.58A13.29,13.29,0,0,0,5.41,38.7V42a1,1,0,0,0,1,1H43.63a1,1,0,0,0,1-1V38.7A13.29,13.29,0,0,0,31.43,25.3Z"/><path class="cls-4" d="M39,24.91a15.84,15.84,0,0,1,8,13.79v1.65H49.1a.92.92,0,0,0,.91-.93v-2A12.55,12.55,0,0,0,39,24.91Z"/></g></g></svg>