<svg xmlns="http://www.w3.org/2000/svg" viewBox="0 0 42.99 40.99"><defs><style>.cls-1{fill:#96989d;}</style></defs><g id="图层_2" data-name="图层 2"><g id="图层_1-2" data-name="图层 1"><path class="cls-1" d="M30.45,15.3A15.26,15.26,0,0,0,15.22,0,15,15,0,0,0,9.76,1l8.55,8.59a2.29,2.29,0,0,1,0,3.22l-4.75,4.84a2.25,2.25,0,0,1-3.2,0L1.48,8.75a15.24,15.24,0,1,0,29,6.55ZM41.66,28.64a4.57,4.57,0,0,1,0,6.44L37.1,39.66a4.53,4.53,0,0,1-6.42,0l-6.52-6a3.26,3.26,0,0,1-1-2.06,18.22,18.22,0,0,0,9.54-10,3.16,3.16,0,0,1,2.45,1Z"/></g></g></svg>