<svg xmlns="http://www.w3.org/2000/svg" xmlns:xlink="http://www.w3.org/1999/xlink" viewBox="0 0 43 43"><defs><style>.cls-1{fill:url(#未命名的渐变_11);}</style><linearGradient id="未命名的渐变_11" y1="21.5" x2="43" y2="21.5" gradientUnits="userSpaceOnUse"><stop offset="0" stop-color="#f80cc6"/><stop offset="1" stop-color="#0d61eb"/></linearGradient></defs><g id="图层_2" data-name="图层 2"><g id="图层_1-2" data-name="图层 1"><path class="cls-1" d="M21.5,0C6.66,0,0,6.66,0,21.5S6.66,43,21.5,43,43,36.34,43,21.5,36.34,0,21.5,0Zm10,32.25H11.47a2.15,2.15,0,1,1,0-4.3H31.53a2.15,2.15,0,0,1,0,4.3Zm0-8.6H11.47a2.15,2.15,0,1,1,0-4.3H31.53a2.15,2.15,0,0,1,0,4.3Zm0-8.6H11.47a2.15,2.15,0,0,1,0-4.3H31.53a2.15,2.15,0,0,1,0,4.3Z"/></g></g></svg>