<svg xmlns="http://www.w3.org/2000/svg" xmlns:xlink="http://www.w3.org/1999/xlink" viewBox="0 0 43 42.99"><defs><style>.cls-1{fill:url(#未命名的渐变_11);}</style><linearGradient id="未命名的渐变_11" y1="21.5" x2="43" y2="21.5" gradientUnits="userSpaceOnUse"><stop offset="0" stop-color="#f80cc6"/><stop offset="1" stop-color="#0d61eb"/></linearGradient></defs><g id="图层_2" data-name="图层 2"><g id="图层_1-2" data-name="图层 1"><path class="cls-1" d="M13.07,30.4c2.77,2.82,3.1,5.85,0,9-1.91,1.93-5,3.1-9.24,3.6a3,3,0,0,1-.67,0A2.89,2.89,0,0,1,.67,40l0-.2.06-.5c.52-4,1.65-7,3.48-8.87C7.31,27.25,10.29,27.58,13.07,30.4ZM38.5.76,39,.91l.47.16a4,4,0,0,1,2.49,2.51c1.87,5.47,1.27,11-1.74,16.5a30.77,30.77,0,0,1-4.78,6.42l-.53.55-.51.49v.16C34,31,31.52,35.34,26.92,41l-.4.49-.73.88a1.7,1.7,0,0,1-2.87-.46l-.05-.15-2.58-8.21-.23-.16A41.37,41.37,0,0,1,15.94,30l-.64-.61-.62-.62a40.62,40.62,0,0,1-5-6.13l-.14-.22L1.19,19.7A1.75,1.75,0,0,1,.38,17l.1-.11.11-.1c6.89-6,12-9,15.61-8.75l.23,0,.14,0,.3-.32a30.79,30.79,0,0,1,5.19-4.18l.6-.37.56-.33A19.1,19.1,0,0,1,38.5.77ZM23.07,12.31a5.39,5.39,0,1,0,7.6,0A5.36,5.36,0,0,0,23.07,12.31Z"/></g></g></svg>