<svg xmlns="http://www.w3.org/2000/svg" xmlns:xlink="http://www.w3.org/1999/xlink" viewBox="0 0 40 44.99">
    <defs>
        <style>.cls-1{fill:url(#未命名的渐变_11);}
        </style>
        <linearGradient id="未命名的渐变_11" y1="22.49" x2="40" y2="22.49" gradientUnits="userSpaceOnUse">
            <stop offset="0" stop-color="#f80cc6"/>
            <stop offset="1" stop-color="#0d61eb"/>
        </linearGradient>
    </defs>
    <g id="图层_2" data-name="图层 2">
        <g id="图层_1-2" data-name="图层 1">
            <path class="cls-1" d="M36.12,8.33,23.88,1.07a7.55,7.55,0,0,0-7.76,0L3.88,8.33A8,8,0,0,0,0,15.24V29.75a8,8,0,0,0,3.88,6.91l12.24,7.26a7.6,7.6,0,0,0,7.76,0l12.24-7.26A8,8,0,0,0,40,29.75V15.24A8,8,0,0,0,36.12,8.33ZM19,35.26a1.29,1.29,0,0,1-1.84,1.28L8,31.48a2.72,2.72,0,0,1-1.35-2.42V19.2a1.29,1.29,0,0,1,1.84-1.27L17.62,23A2.72,2.72,0,0,1,19,25.41Zm1-14.34a2.89,2.89,0,0,1-1.4-.33l-9.27-5a1.18,1.18,0,0,1,0-2l9.27-4.95A2.79,2.79,0,0,1,20,8.3a2.75,2.75,0,0,1,1.39.34l9.28,5a1,1,0,0,1,.59,1,1,1,0,0,1-.59,1l-9.28,5A2.85,2.85,0,0,1,20,20.92ZM33.33,29A2.76,2.76,0,0,1,32,31.44l-9.11,5.08A1.28,1.28,0,0,1,21,35.26V25.43A2.72,2.72,0,0,1,22.38,23l9.11-5.08a1.29,1.29,0,0,1,1.84,1.29Z"/>
        </g>
    </g>
</svg>
