<svg xmlns="http://www.w3.org/2000/svg" xmlns:xlink="http://www.w3.org/1999/xlink" viewBox="0 0 126 119.99"><defs><style>.cls-1{fill:url(#未命名的渐变_11);}</style><linearGradient id="未命名的渐变_11" x1="187" y1="-1" x2="313" y2="-1" gradientTransform="translate(-187 61)" gradientUnits="userSpaceOnUse"><stop offset="0" stop-color="#f80cc6"/><stop offset="1" stop-color="#0d61eb"/></linearGradient></defs><g id="图层_2" data-name="图层 2"><g id="图层_2-2" data-name="图层 2"><path class="cls-1" d="M109.75,0H16.25A16.28,16.28,0,0,0,0,16.31V96.58a16.28,16.28,0,0,0,16.25,16.31H17v3.34a3.75,3.75,0,1,0,7.5,0v-3.34H101v3.34a3.75,3.75,0,1,0,7.5,0v-3.34h1.25A16.28,16.28,0,0,0,126,96.58V16.31A16.28,16.28,0,0,0,109.75,0Zm8.75,96.58a8.78,8.78,0,0,1-8.75,8.78H16.25A8.78,8.78,0,0,1,7.5,96.58v-.42h93.15A7.36,7.36,0,0,0,108,88.78v-64a7.37,7.37,0,0,0-7.35-7.38H7.5V16.31a8.77,8.77,0,0,1,8.75-8.78h93.5a8.77,8.77,0,0,1,8.75,8.78Zm-73-38.92V55.79A2.82,2.82,0,0,1,48.32,53h9.24a18.85,18.85,0,1,1,0,7.52H48.32A2.82,2.82,0,0,1,45.5,57.66ZM76,68.05A11.33,11.33,0,1,0,64.68,56.73,11.31,11.31,0,0,0,76,68.05Z"/></g></g></svg>