<svg xmlns="http://www.w3.org/2000/svg" viewBox="0 0 126 119.58"><defs><style>.cls-1{fill:#96989d;}</style></defs><g id="图层_2" data-name="图层 2"><g id="图层_2-2" data-name="图层 2"><path class="cls-1" d="M109.75,0H16.25A16.26,16.26,0,0,0,0,16.25v80A16.26,16.26,0,0,0,16.25,112.5H17v3.33a3.75,3.75,0,0,0,7.5,0V112.5H101v3.33a3.75,3.75,0,0,0,7.5,0V112.5h1.25A16.26,16.26,0,0,0,126,96.25v-80A16.26,16.26,0,0,0,109.75,0Zm8.75,96.25a8.77,8.77,0,0,1-8.75,8.75H16.25A8.77,8.77,0,0,1,7.5,96.25v-.42h93.15A7.35,7.35,0,0,0,108,88.48V24.69a7.36,7.36,0,0,0-7.35-7.36H7.5V16.25A8.77,8.77,0,0,1,16.25,7.5h93.5a8.77,8.77,0,0,1,8.75,8.75Zm-73-38.78V55.6a2.82,2.82,0,0,1,2.82-2.82h9.24a18.79,18.79,0,1,1,0,7.5H48.32A2.81,2.81,0,0,1,45.5,57.47Z"/><path class="cls-1" d="M76,67.82A11.29,11.29,0,1,0,64.68,56.53,11.29,11.29,0,0,0,76,67.82Z"/></g></g></svg>