<svg xmlns="http://www.w3.org/2000/svg" viewBox="0 0 11 11">
    <defs>
        <style>.cls-1{fill:#00E9FF;}</style>
    </defs>
    <g id="图层_2" data-name="图层 2">
        <g id="图层_2-2" data-name="图层 2">
            <polygon class="cls-1" points="7 0 7 1 10 1 10 4 11 4 11 1 11 0 7 0"/>
            <polygon class="cls-1"
                     points="10 10 1 10 1 1 5 1 5 0 1 0 0 0 0 1 0 10 0 11 1 11 10 11 11 11 11 10 11 6 10 6 10 10"/>
            <rect class="cls-1" x="8" y="2" width="1" height="1"/>
            <rect class="cls-1" x="7" y="3" width="1" height="1"/>
            <rect class="cls-1" x="6" y="4" width="1" height="1"/>
            <rect class="cls-1" x="5" y="5" width="1" height="1"/>
            <rect class="cls-1" x="4" y="6" width="1" height="1"/>
        </g>
    </g>
</svg>