<?xml version="1.0" encoding="UTF-8"?>
<svg width="84px" height="84px" viewBox="0 0 84 84" version="1.1" xmlns="http://www.w3.org/2000/svg" xmlns:xlink="http://www.w3.org/1999/xlink">
    <title>编组 4</title>
    <g id="页面-1" stroke="none" stroke-width="1" fill="none" fill-rule="evenodd">
        <g id="coso-d状态2" transform="translate(-689.000000, -314.000000)">
            <g id="编组-4" transform="translate(689.000000, 314.000000)">
                <circle id="椭圆形备份" stroke="#46484D" stroke-width="7" cx="42" cy="42" r="38.5"></circle>
                <path d="M38.056338,39 L34,39 L34,33.9310345 C34,32.8275862 34.20389,31.7988506 34.61167,30.8448276 C35.01945,29.8908046 35.5828303,29.0517241 36.3018109,28.3275862 C37.0207914,27.6034483 37.8685446,27.0344828 38.8450704,26.6206896 C39.8215962,26.2068965 40.889336,26 42.0482897,26 C43.0784708,26 44.0710932,26.2068965 45.0261569,26.6206896 C45.9812207,27.0344827 46.8289739,27.6034483 47.5694165,28.3275862 C48.3098592,29.0517242 48.9000671,29.8908046 49.3400402,30.8448276 C49.7800134,31.7988506 50,32.8275862 50,33.9310345 L50,39 L46.1046278,39 L46.1046278,34.8965517 C46.1046278,33.4482759 45.7290409,32.3275862 44.9778672,31.5344827 C44.2266935,30.7413793 43.2072435,30.3448276 41.9195171,30.3448276 C40.7605634,30.3448276 39.8269618,30.7413793 39.1187123,31.5344827 C38.4104628,32.3275862 38.056338,33.4482758 38.056338,34.8965517 L38.056338,39 Z M51.8823529,41 C52.459893,41 52.9572193,41.2188119 53.3743316,41.6564356 C53.7914439,42.0940594 54,42.6158416 54,43.2217822 L54,53.6574257 C54,54.2633663 53.8983957,54.830033 53.6951872,55.3574258 C53.4919786,55.8848185 53.2139037,56.3448845 52.8609625,56.7376238 C52.5080214,57.1303631 52.0909091,57.4389439 51.6096256,57.6633663 C51.1283422,57.8877888 50.5989305,58 50.0213903,58 L33.8181818,58 C33.2406417,58 32.7165775,57.8877888 32.2459893,57.6633663 C31.7754011,57.4389439 31.3743316,57.1415842 31.0427808,56.7712871 C30.71123,56.4009901 30.4545455,55.9689769 30.2727273,55.4752476 C30.0909091,54.9815182 30,54.4541255 30,53.8930693 L30,43.2217822 C30,42.6158416 30.2032086,42.0940594 30.6096257,41.6564357 C31.0160428,41.2188119 31.5080214,41 32.0855615,41 L34.0106952,41 L38.0534759,41 L46.0748663,41 L49.9572192,41 L51.8823529,41 L51.8823529,41 Z" id="形状" fill="#FFFFFF" fill-rule="nonzero"></path>
            </g>
        </g>
    </g>
</svg>