<svg xmlns="http://www.w3.org/2000/svg" viewBox="0 0 100 85.73"><g  fill="#fff"  id="图层_2" data-name="图层 2"><g id="图层_1-2" data-name="图层 1"><path d="M89.82,24.4c0-.94,0-1.86-.06-2.79a42,42,0,0,0,10.24-11,39.26,39.26,0,0,1-11.79,3.22,21.09,21.09,0,0,0,9-11.78,39.67,39.67,0,0,1-13,5A20.38,20.38,0,0,0,69.24,0C57.91-.18,48.72,9.39,48.72,21.39a23,23,0,0,0,.53,4.95C32.19,25.24,17.07,16.36,7,3A22.68,22.68,0,0,0,4.18,14,22.62,22.62,0,0,0,13.3,32.29,19.77,19.77,0,0,1,4,29.44v.28c0,10.62,7.08,19.52,16.46,21.59a19.13,19.13,0,0,1-9.26.32c2.61,8.7,10.19,15.06,19.17,15.27A39.69,39.69,0,0,1,4.9,76.18,39.54,39.54,0,0,1,0,75.87a55.36,55.36,0,0,0,31.46,9.86C69.19,85.73,89.82,52.89,89.82,24.4Z"/></g></g></svg>