<svg xmlns="http://www.w3.org/2000/svg" viewBox="0 0 18 22"><defs><style>.cls-1,.cls-2{fill: #0BC4CF;}.cls-2{fill-rule:evenodd;}</style></defs><g id="图层_2" data-name="图层 2"><g id="图层_2-2" data-name="图层 2"><rect class="cls-1" x="16" y="10" width="2" height="2"/><rect class="cls-1" x="12" y="6" width="2" height="2"/><rect class="cls-1" x="14" y="12" width="2" height="2"/><rect class="cls-1" x="14" y="8" width="2" height="2"/><rect class="cls-1" x="12" y="14" width="2" height="2"/><rect class="cls-1" x="5" y="10" width="2" height="2"/><rect class="cls-1" x="8" y="10" width="2" height="2"/><rect class="cls-1" x="11" y="10" width="2" height="2"/><polygon class="cls-2" points="0 0 0 2 0 20 0 22 18 22 18 20 18 18 16 18 16 20 2 20 2 2 16 2 16 4 18 4 18 2 18 0 0 0"/></g></g></svg>
