<svg xmlns="http://www.w3.org/2000/svg" width="370.031" height="370.03" viewBox="0 0 370.031 370.03">
  <defs>
    <style>
      .cls-1 {
        fill: #36383d;
        fill-rule: evenodd;
      }
    </style>
  </defs>
  <path id="形状_20" data-name="形状 20" class="cls-1" d="M1292.78,3999.68l-110.08,45.6a29.4,29.4,0,0,1-22.45,0l-110.08-45.6a29.335,29.335,0,0,1-15.87-15.88l-45.6-110.07a29.349,29.349,0,0,1,0-22.46l45.6-110.07a29.335,29.335,0,0,1,15.87-15.88l110.08-45.59a29.306,29.306,0,0,1,22.45,0l110.08,45.59a29.353,29.353,0,0,1,15.88,15.88l45.59,110.07a29.331,29.331,0,0,1,0,22.46l-45.59,110.07A29.353,29.353,0,0,1,1292.78,3999.68Z" transform="translate(-986.469 -3677.5)"/>
</svg>
