<svg xmlns="http://www.w3.org/2000/svg" viewBox="0 0 19.27 19.99"><defs><style>.cls-1,.cls-2{fill: #0BC4CF;}.cls-1{fill-rule:evenodd;}</style></defs><g id="图层_2" data-name="图层 2"><g id="图层_2-2" data-name="图层 2"><path id="圆角矩形_11_拷贝" data-name="圆角矩形 11 拷贝" class="cls-1" d="M.29,4.53,4.54.29A1,1,0,0,1,6,.3,1,1,0,0,1,6,1.71H6L1.71,6A1,1,0,0,1,.29,4.53Z"/><rect class="cls-2" x="4.24" width="2.01" height="19.99" rx="1.01"/><path id="圆角矩形_11_拷贝-2" data-name="圆角矩形 11 拷贝" class="cls-1" d="M19,15.46,14.73,19.7a1,1,0,0,1-1.41,0,1,1,0,0,1,0-1.42h0L17.56,14A1,1,0,0,1,19,15.46Z"/><rect class="cls-2" x="13.03" width="2.01" height="19.99" rx="1.01"/></g></g></svg>
